{
    "asset" : {
        "generator" : "Khronos glTF Blender I/O v1.6.16",
        "version" : "2.0"
    },
    "scene" : 0,
    "scenes" : [
        {
            "name" : "Scene",
            "nodes" : [
                0,
                1,
                2,
                3,
                4,
                5,
                6,
                7,
                8,
                9
            ]
        }
    ],
    "nodes" : [
        {
            "mesh" : 0,
            "name" : "\u7acb\u65b9\u9ad4",
            "translation" : [
                -0.27878546714782715,
                1.3899823427200317,
                0.06368541717529297
            ]
        },
        {
            "mesh" : 1,
            "name" : "\u7acb\u65b9\u9ad4.001"
        },
        {
            "mesh" : 2,
            "name" : "\u7acb\u65b9\u9ad4.002",
            "rotation" : [
                0.21978211402893066,
                0,
                0,
                0.9755489826202393
            ],
            "translation" : [
                -0.31801819801330566,
                3.03804087638855,
                4.634199142456055
            ]
        },
        {
            "mesh" : 3,
            "name" : "\u5713\u67f1\u9ad4",
            "rotation" : [
                0.21978211402893066,
                0,
                0,
                0.9755489826202393
            ],
            "scale" : [
                1.157411813735962,
                1.157411813735962,
                1.157411813735962
            ],
            "translation" : [
                3.7441911697387695,
                3.002851963043213,
                4.687655925750732
            ]
        },
        {
            "mesh" : 4,
            "name" : "\u5713\u67f1\u9ad4.001",
            "rotation" : [
                0.21978211402893066,
                0,
                0,
                0.9755489826202393
            ],
            "scale" : [
                0.9679652452468872,
                0.967965304851532,
                0.967965304851532
            ],
            "translation" : [
                1.708083152770996,
                3.002851963043213,
                4.687655925750732
            ]
        },
        {
            "mesh" : 5,
            "name" : "\u7acb\u65b9\u9ad4.004"
        },
        {
            "mesh" : 6,
            "name" : "\u5713\u67f1\u9ad4.002",
            "rotation" : [
                0.21978214383125305,
                0,
                0,
                0.9755489826202393
            ],
            "scale" : [
                0.8815507292747498,
                0.8815507292747498,
                0.8815507292747498
            ],
            "translation" : [
                3.737591505050659,
                3.3834681510925293,
                4.912546634674072
            ]
        },
        {
            "mesh" : 7,
            "name" : "\u7403\u9ad4",
            "rotation" : [
                0.2381395846605301,
                0,
                0,
                0.9712309241294861
            ],
            "scale" : [
                0.22070294618606567,
                0.22070294618606567,
                0.22070294618606567
            ],
            "translation" : [
                3.739060878753662,
                3.832007646560669,
                5.131434440612793
            ]
        },
        {
            "mesh" : 8,
            "name" : "\u5713\u67f1\u9ad4.003",
            "rotation" : [
                0.21978214383125305,
                0,
                0,
                0.9755489826202393
            ],
            "scale" : [
                1.2311674356460571,
                1.2311674356460571,
                1.2311674356460571
            ],
            "translation" : [
                1.714956283569336,
                3.150002956390381,
                4.777278900146484
            ]
        },
        {
            "mesh" : 9,
            "name" : "\u7acb\u65b9\u9ad4.003",
            "rotation" : [
                0.5,
                0.5,
                0.5,
                0.4999999701976776
            ],
            "translation" : [
                -3.7441272735595703,
                0.24076509475708008,
                4.241978645324707
            ]
        }
    ],
    "materials" : [
        {
            "doubleSided" : true,
            "name" : "Material",
            "pbrMetallicRoughness" : {
                "baseColorFactor" : [
                    0.800000011920929,
                    0.800000011920929,
                    0.800000011920929,
                    1
                ],
                "metallicFactor" : 0,
                "roughnessFactor" : 0.4000000059604645
            }
        }
    ],
    "meshes" : [
        {
            "name" : "\u7acb\u65b9\u9ad4",
            "primitives" : [
                {
                    "attributes" : {
                        "POSITION" : 0,
                        "NORMAL" : 1,
                        "TEXCOORD_0" : 2
                    },
                    "indices" : 3,
                    "material" : 0
                }
            ]
        },
        {
            "name" : "\u7acb\u65b9\u9ad4.001",
            "primitives" : [
                {
                    "attributes" : {
                        "POSITION" : 4,
                        "NORMAL" : 5,
                        "TEXCOORD_0" : 6
                    },
                    "indices" : 7
                }
            ]
        },
        {
            "name" : "\u7acb\u65b9\u9ad4.002",
            "primitives" : [
                {
                    "attributes" : {
                        "POSITION" : 8,
                        "NORMAL" : 9,
                        "TEXCOORD_0" : 10
                    },
                    "indices" : 11
                }
            ]
        },
        {
            "name" : "\u5713\u67f1\u9ad4",
            "primitives" : [
                {
                    "attributes" : {
                        "POSITION" : 12,
                        "NORMAL" : 13,
                        "TEXCOORD_0" : 14
                    },
                    "indices" : 15
                }
            ]
        },
        {
            "name" : "\u5713\u67f1\u9ad4.001",
            "primitives" : [
                {
                    "attributes" : {
                        "POSITION" : 16,
                        "NORMAL" : 17,
                        "TEXCOORD_0" : 18
                    },
                    "indices" : 19
                }
            ]
        },
        {
            "name" : "\u7acb\u65b9\u9ad4.004",
            "primitives" : [
                {
                    "attributes" : {
                        "POSITION" : 20,
                        "NORMAL" : 21,
                        "TEXCOORD_0" : 22
                    },
                    "indices" : 23
                }
            ]
        },
        {
            "name" : "\u5713\u67f1\u9ad4.002",
            "primitives" : [
                {
                    "attributes" : {
                        "POSITION" : 24,
                        "NORMAL" : 25,
                        "TEXCOORD_0" : 26
                    },
                    "indices" : 27
                }
            ]
        },
        {
            "name" : "\u7403\u9ad4",
            "primitives" : [
                {
                    "attributes" : {
                        "POSITION" : 28,
                        "NORMAL" : 29,
                        "TEXCOORD_0" : 30
                    },
                    "indices" : 31
                }
            ]
        },
        {
            "name" : "\u5713\u67f1\u9ad4.003",
            "primitives" : [
                {
                    "attributes" : {
                        "POSITION" : 32,
                        "NORMAL" : 33,
                        "TEXCOORD_0" : 34
                    },
                    "indices" : 35
                }
            ]
        },
        {
            "name" : "\u7acb\u65b9\u9ad4.010",
            "primitives" : [
                {
                    "attributes" : {
                        "POSITION" : 36,
                        "NORMAL" : 37,
                        "TEXCOORD_0" : 38
                    },
                    "indices" : 39
                }
            ]
        }
    ],
    "accessors" : [
        {
            "bufferView" : 0,
            "componentType" : 5126,
            "count" : 233,
            "max" : [
                5.716835021972656,
                3.0927929878234863,
                5.38752555847168
            ],
            "min" : [
                -5.716835021972656,
                -1.3899823427200317,
                -3.5280160903930664
            ],
            "type" : "VEC3"
        },
        {
            "bufferView" : 1,
            "componentType" : 5126,
            "count" : 233,
            "type" : "VEC3"
        },
        {
            "bufferView" : 2,
            "componentType" : 5126,
            "count" : 233,
            "type" : "VEC2"
        },
        {
            "bufferView" : 3,
            "componentType" : 5123,
            "count" : 678,
            "type" : "SCALAR"
        },
        {
            "bufferView" : 4,
            "componentType" : 5126,
            "count" : 140,
            "max" : [
                5.229969024658203,
                3.3549654483795166,
                5.32794189453125
            ],
            "min" : [
                -1.311527967453003,
                2.442603826522827,
                3.704441785812378
            ],
            "type" : "VEC3"
        },
        {
            "bufferView" : 5,
            "componentType" : 5126,
            "count" : 140,
            "type" : "VEC3"
        },
        {
            "bufferView" : 6,
            "componentType" : 5126,
            "count" : 140,
            "type" : "VEC2"
        },
        {
            "bufferView" : 7,
            "componentType" : 5123,
            "count" : 564,
            "type" : "SCALAR"
        },
        {
            "bufferView" : 8,
            "componentType" : 5126,
            "count" : 291,
            "max" : [
                0.38524824380874634,
                0.053666580468416214,
                0.724085807800293
            ],
            "min" : [
                -0.15008068084716797,
                -0.053666580468416214,
                -0.724085807800293
            ],
            "type" : "VEC3"
        },
        {
            "bufferView" : 9,
            "componentType" : 5126,
            "count" : 291,
            "type" : "VEC3"
        },
        {
            "bufferView" : 10,
            "componentType" : 5126,
            "count" : 291,
            "type" : "VEC2"
        },
        {
            "bufferView" : 11,
            "componentType" : 5123,
            "count" : 1164,
            "type" : "SCALAR"
        },
        {
            "bufferView" : 12,
            "componentType" : 5126,
            "count" : 366,
            "max" : [
                0.4729759693145752,
                0.11366518586874008,
                0.4729759693145752
            ],
            "min" : [
                -0.4729759693145752,
                -0.11366518586874008,
                -0.4729759693145752
            ],
            "type" : "VEC3"
        },
        {
            "bufferView" : 13,
            "componentType" : 5126,
            "count" : 366,
            "type" : "VEC3"
        },
        {
            "bufferView" : 14,
            "componentType" : 5126,
            "count" : 366,
            "type" : "VEC2"
        },
        {
            "bufferView" : 15,
            "componentType" : 5123,
            "count" : 1140,
            "type" : "SCALAR"
        },
        {
            "bufferView" : 16,
            "componentType" : 5126,
            "count" : 387,
            "max" : [
                0.4729759693145752,
                0.11366518586874008,
                0.4729759693145752
            ],
            "min" : [
                -0.4729759693145752,
                -0.11366518586874008,
                -0.4729759693145752
            ],
            "type" : "VEC3"
        },
        {
            "bufferView" : 17,
            "componentType" : 5126,
            "count" : 387,
            "type" : "VEC3"
        },
        {
            "bufferView" : 18,
            "componentType" : 5126,
            "count" : 387,
            "type" : "VEC2"
        },
        {
            "bufferView" : 19,
            "componentType" : 5123,
            "count" : 1332,
            "type" : "SCALAR"
        },
        {
            "bufferView" : 20,
            "componentType" : 5126,
            "count" : 248,
            "max" : [
                -1.8096815347671509,
                3.0031189918518066,
                3.855778217315674
            ],
            "min" : [
                -5.345020771026611,
                0.5086163282394409,
                3.5917012691497803
            ],
            "type" : "VEC3"
        },
        {
            "bufferView" : 21,
            "componentType" : 5126,
            "count" : 248,
            "type" : "VEC3"
        },
        {
            "bufferView" : 22,
            "componentType" : 5126,
            "count" : 248,
            "type" : "VEC2"
        },
        {
            "bufferView" : 23,
            "componentType" : 5123,
            "count" : 852,
            "type" : "SCALAR"
        },
        {
            "bufferView" : 24,
            "componentType" : 5126,
            "count" : 130,
            "max" : [
                0.11547136306762695,
                0.3645433783531189,
                0.1154712438583374
            ],
            "min" : [
                -0.11547136306762695,
                -0.3645433783531189,
                -0.1154712438583374
            ],
            "type" : "VEC3"
        },
        {
            "bufferView" : 25,
            "componentType" : 5126,
            "count" : 130,
            "type" : "VEC3"
        },
        {
            "bufferView" : 26,
            "componentType" : 5126,
            "count" : 130,
            "type" : "VEC2"
        },
        {
            "bufferView" : 27,
            "componentType" : 5123,
            "count" : 372,
            "type" : "SCALAR"
        },
        {
            "bufferView" : 28,
            "componentType" : 5126,
            "count" : 559,
            "max" : [
                0.9999997019767761,
                1,
                0.9999994039535522
            ],
            "min" : [
                -0.9999990463256836,
                -1,
                -0.9999987483024597
            ],
            "type" : "VEC3"
        },
        {
            "bufferView" : 29,
            "componentType" : 5126,
            "count" : 559,
            "type" : "VEC3"
        },
        {
            "bufferView" : 30,
            "componentType" : 5126,
            "count" : 559,
            "type" : "VEC2"
        },
        {
            "bufferView" : 31,
            "componentType" : 5123,
            "count" : 2880,
            "type" : "SCALAR"
        },
        {
            "bufferView" : 32,
            "componentType" : 5126,
            "count" : 386,
            "max" : [
                0.20724457502365112,
                0.0736985057592392,
                0.20724454522132874
            ],
            "min" : [
                -0.20724457502365112,
                -0.0736985057592392,
                -0.20724454522132874
            ],
            "type" : "VEC3"
        },
        {
            "bufferView" : 33,
            "componentType" : 5126,
            "count" : 386,
            "type" : "VEC3"
        },
        {
            "bufferView" : 34,
            "componentType" : 5126,
            "count" : 386,
            "type" : "VEC2"
        },
        {
            "bufferView" : 35,
            "componentType" : 5123,
            "count" : 1332,
            "type" : "SCALAR"
        },
        {
            "bufferView" : 36,
            "componentType" : 5126,
            "count" : 42,
            "max" : [
                0.08051179349422455,
                0.4776398837566376,
                2.251493453979492
            ],
            "min" : [
                -0.24076509475708008,
                -0.6502768993377686,
                -2.251493453979492
            ],
            "type" : "VEC3"
        },
        {
            "bufferView" : 37,
            "componentType" : 5126,
            "count" : 42,
            "type" : "VEC3"
        },
        {
            "bufferView" : 38,
            "componentType" : 5126,
            "count" : 42,
            "type" : "VEC2"
        },
        {
            "bufferView" : 39,
            "componentType" : 5123,
            "count" : 96,
            "type" : "SCALAR"
        }
    ],
    "bufferViews" : [
        {
            "buffer" : 0,
            "byteLength" : 2796,
            "byteOffset" : 0
        },
        {
            "buffer" : 0,
            "byteLength" : 2796,
            "byteOffset" : 2796
        },
        {
            "buffer" : 0,
            "byteLength" : 1864,
            "byteOffset" : 5592
        },
        {
            "buffer" : 0,
            "byteLength" : 1356,
            "byteOffset" : 7456
        },
        {
            "buffer" : 0,
            "byteLength" : 1680,
            "byteOffset" : 8812
        },
        {
            "buffer" : 0,
            "byteLength" : 1680,
            "byteOffset" : 10492
        },
        {
            "buffer" : 0,
            "byteLength" : 1120,
            "byteOffset" : 12172
        },
        {
            "buffer" : 0,
            "byteLength" : 1128,
            "byteOffset" : 13292
        },
        {
            "buffer" : 0,
            "byteLength" : 3492,
            "byteOffset" : 14420
        },
        {
            "buffer" : 0,
            "byteLength" : 3492,
            "byteOffset" : 17912
        },
        {
            "buffer" : 0,
            "byteLength" : 2328,
            "byteOffset" : 21404
        },
        {
            "buffer" : 0,
            "byteLength" : 2328,
            "byteOffset" : 23732
        },
        {
            "buffer" : 0,
            "byteLength" : 4392,
            "byteOffset" : 26060
        },
        {
            "buffer" : 0,
            "byteLength" : 4392,
            "byteOffset" : 30452
        },
        {
            "buffer" : 0,
            "byteLength" : 2928,
            "byteOffset" : 34844
        },
        {
            "buffer" : 0,
            "byteLength" : 2280,
            "byteOffset" : 37772
        },
        {
            "buffer" : 0,
            "byteLength" : 4644,
            "byteOffset" : 40052
        },
        {
            "buffer" : 0,
            "byteLength" : 4644,
            "byteOffset" : 44696
        },
        {
            "buffer" : 0,
            "byteLength" : 3096,
            "byteOffset" : 49340
        },
        {
            "buffer" : 0,
            "byteLength" : 2664,
            "byteOffset" : 52436
        },
        {
            "buffer" : 0,
            "byteLength" : 2976,
            "byteOffset" : 55100
        },
        {
            "buffer" : 0,
            "byteLength" : 2976,
            "byteOffset" : 58076
        },
        {
            "buffer" : 0,
            "byteLength" : 1984,
            "byteOffset" : 61052
        },
        {
            "buffer" : 0,
            "byteLength" : 1704,
            "byteOffset" : 63036
        },
        {
            "buffer" : 0,
            "byteLength" : 1560,
            "byteOffset" : 64740
        },
        {
            "buffer" : 0,
            "byteLength" : 1560,
            "byteOffset" : 66300
        },
        {
            "buffer" : 0,
            "byteLength" : 1040,
            "byteOffset" : 67860
        },
        {
            "buffer" : 0,
            "byteLength" : 744,
            "byteOffset" : 68900
        },
        {
            "buffer" : 0,
            "byteLength" : 6708,
            "byteOffset" : 69644
        },
        {
            "buffer" : 0,
            "byteLength" : 6708,
            "byteOffset" : 76352
        },
        {
            "buffer" : 0,
            "byteLength" : 4472,
            "byteOffset" : 83060
        },
        {
            "buffer" : 0,
            "byteLength" : 5760,
            "byteOffset" : 87532
        },
        {
            "buffer" : 0,
            "byteLength" : 4632,
            "byteOffset" : 93292
        },
        {
            "buffer" : 0,
            "byteLength" : 4632,
            "byteOffset" : 97924
        },
        {
            "buffer" : 0,
            "byteLength" : 3088,
            "byteOffset" : 102556
        },
        {
            "buffer" : 0,
            "byteLength" : 2664,
            "byteOffset" : 105644
        },
        {
            "buffer" : 0,
            "byteLength" : 504,
            "byteOffset" : 108308
        },
        {
            "buffer" : 0,
            "byteLength" : 504,
            "byteOffset" : 108812
        },
        {
            "buffer" : 0,
            "byteLength" : 336,
            "byteOffset" : 109316
        },
        {
            "buffer" : 0,
            "byteLength" : 192,
            "byteOffset" : 109652
        }
    ],
    "buffers" : [
        {
            "byteLength" : 109844,
            "uri" : "data:application/octet-stream;base64,"
        }
    ]
}
