{"accessors":[{"bufferView":0,"componentType":5126,"count":204660,"max":[5.078557014465332,0.554036021232605,0.13499990105628967],"min":[0.004438817035406828,-0.12497109919786453,-0.13499990105628967],"type":"VEC3"},{"bufferView":1,"componentType":5126,"count":204660,"type":"VEC3"},{"bufferView":2,"componentType":5125,"count":204660,"type":"SCALAR"},{"bufferView":3,"componentType":5126,"count":64632,"max":[2.279118061065674,0.6391180157661438,0.10999999940395355],"min":[-0.002409100066870451,-0.020552750676870346,-0.10999999940395355],"type":"VEC3"},{"bufferView":4,"componentType":5126,"count":64632,"type":"VEC3"},{"bufferView":5,"componentType":5125,"count":64632,"type":"SCALAR"},{"bufferView":6,"componentType":5126,"count":672,"max":[-4.804318904876709,-4.371288776397705,2.3176939487457275],"min":[-5.004871845245361,-4.735565185546875,2.2813479900360107],"type":"VEC3"},{"bufferView":7,"componentType":5126,"count":672,"type":"VEC3"},{"bufferView":8,"componentType":5125,"count":672,"type":"SCALAR"},{"bufferView":9,"componentType":5126,"count":672,"max":[-5.141520023345947,-4.364880084991455,2.3176939487457275],"min":[-5.3420729637146,-4.729156017303467,2.2813479900360107],"type":"VEC3"},{"bufferView":10,"componentType":5126,"count":672,"type":"VEC3"},{"bufferView":11,"componentType":5125,"count":672,"type":"SCALAR"},{"bufferView":12,"componentType":5126,"count":672,"max":[-4.892234802246094,-4.304058074951172,2.3176939487457275],"min":[-5.256511211395264,-4.504611015319824,2.2813479900360107],"type":"VEC3"},{"bufferView":13,"componentType":5126,"count":672,"type":"VEC3"},{"bufferView":14,"componentType":5125,"count":672,"type":"SCALAR"},{"bufferView":15,"componentType":5126,"count":672,"max":[-4.898643970489502,-4.573864936828613,2.3176939487457275],"min":[-5.262919902801514,-4.774417877197266,2.2813479900360107],"type":"VEC3"},{"bufferView":16,"componentType":5126,"count":672,"type":"VEC3"},{"bufferView":17,"componentType":5125,"count":672,"type":"SCALAR"},{"bufferView":18,"componentType":5126,"count":96,"max":[0.08051174134016037,2.251492977142334,0.47763991355895996],"min":[-0.24076500535011292,-2.251492977142334,-0.6502768993377686],"type":"VEC3"},{"bufferView":19,"componentType":5126,"count":96,"type":"VEC3"},{"bufferView":20,"componentType":5125,"count":96,"type":"SCALAR"},{"bufferView":21,"componentType":5126,"count":1332,"max":[0.20724450051784515,0.20724450051784515,0.07369846105575562],"min":[-0.20724450051784515,-0.20724450051784515,-0.07369846105575562],"type":"VEC3"},{"bufferView":22,"componentType":5126,"count":1332,"type":"VEC3"},{"bufferView":23,"componentType":5125,"count":1332,"type":"SCALAR"},{"bufferView":24,"componentType":5126,"count":2880,"max":[0.9999997019767761,0.9999988079071045,1.0],"min":[-0.9999991059303284,-0.9999994039535522,-1.0],"type":"VEC3"},{"bufferView":25,"componentType":5126,"count":2880,"type":"VEC3"},{"bufferView":26,"componentType":5125,"count":2880,"type":"SCALAR"},{"bufferView":27,"componentType":5126,"count":372,"max":[0.11547130346298218,0.11547119915485382,0.3645434081554413],"min":[-0.11547130346298218,-0.11547119915485382,-0.3645434081554413],"type":"VEC3"},{"bufferView":28,"componentType":5126,"count":372,"type":"VEC3"},{"bufferView":29,"componentType":5125,"count":372,"type":"SCALAR"},{"bufferView":30,"componentType":5126,"count":852,"max":[-1.809682011604309,-3.591701030731201,3.0031189918518066],"min":[-5.345020771026611,-3.8557779788970947,0.5086163282394409],"type":"VEC3"},{"bufferView":31,"componentType":5126,"count":852,"type":"VEC3"},{"bufferView":32,"componentType":5125,"count":852,"type":"SCALAR"},{"bufferView":33,"componentType":5126,"count":1332,"max":[0.4729759991168976,0.4729759991168976,0.11366520076990128],"min":[-0.4729759991168976,-0.4729759991168976,-0.11366520076990128],"type":"VEC3"},{"bufferView":34,"componentType":5126,"count":1332,"type":"VEC3"},{"bufferView":35,"componentType":5125,"count":1332,"type":"SCALAR"},{"bufferView":36,"componentType":5126,"count":1140,"max":[0.4729759991168976,0.4729759991168976,0.11366520076990128],"min":[-0.4729759991168976,-0.4729759991168976,-0.11366520076990128],"type":"VEC3"},{"bufferView":37,"componentType":5126,"count":1140,"type":"VEC3"},{"bufferView":38,"componentType":5125,"count":1140,"type":"SCALAR"},{"bufferView":39,"componentType":5126,"count":1164,"max":[0.3852483034133911,0.724085807800293,0.053666528314352036],"min":[-0.150080606341362,-0.724085807800293,-0.053666528314352036],"type":"VEC3"},{"bufferView":40,"componentType":5126,"count":1164,"type":"VEC3"},{"bufferView":41,"componentType":5125,"count":1164,"type":"SCALAR"},{"bufferView":42,"componentType":5126,"count":912,"max":[5.229969024658203,-3.704442024230957,3.3549649715423584],"min":[-1.311527967453003,-5.32794189453125,2.4426040649414063],"type":"VEC3"},{"bufferView":43,"componentType":5126,"count":912,"type":"VEC3"},{"bufferView":44,"componentType":5125,"count":912,"type":"SCALAR"},{"bufferView":45,"componentType":5126,"count":678,"max":[5.716835021972656,3.5280160903930664,3.0927929878234863],"min":[-5.716835021972656,-5.387526035308838,-1.389981985092163],"type":"VEC3"},{"bufferView":46,"componentType":5126,"count":678,"type":"VEC3"},{"bufferView":47,"componentType":5125,"count":678,"type":"SCALAR"}],"asset":{"generator":"Luxion KeyShot","version":"2.0"},"bufferViews":[{"buffer":0,"byteLength":2455920,"byteOffset":0,"byteStride":12},{"buffer":0,"byteLength":2455920,"byteOffset":2455920,"byteStride":12},{"buffer":0,"byteLength":818640,"byteOffset":4911840},{"buffer":0,"byteLength":775584,"byteOffset":5730480,"byteStride":12},{"buffer":0,"byteLength":775584,"byteOffset":6506064,"byteStride":12},{"buffer":0,"byteLength":258528,"byteOffset":7281648},{"buffer":0,"byteLength":8064,"byteOffset":7540176,"byteStride":12},{"buffer":0,"byteLength":8064,"byteOffset":7548240,"byteStride":12},{"buffer":0,"byteLength":2688,"byteOffset":7556304},{"buffer":0,"byteLength":8064,"byteOffset":7558992,"byteStride":12},{"buffer":0,"byteLength":8064,"byteOffset":7567056,"byteStride":12},{"buffer":0,"byteLength":2688,"byteOffset":7575120},{"buffer":0,"byteLength":8064,"byteOffset":7577808,"byteStride":12},{"buffer":0,"byteLength":8064,"byteOffset":7585872,"byteStride":12},{"buffer":0,"byteLength":2688,"byteOffset":7593936},{"buffer":0,"byteLength":8064,"byteOffset":7596624,"byteStride":12},{"buffer":0,"byteLength":8064,"byteOffset":7604688,"byteStride":12},{"buffer":0,"byteLength":2688,"byteOffset":7612752},{"buffer":0,"byteLength":1152,"byteOffset":7615440,"byteStride":12},{"buffer":0,"byteLength":1152,"byteOffset":7616592,"byteStride":12},{"buffer":0,"byteLength":384,"byteOffset":7617744},{"buffer":0,"byteLength":15984,"byteOffset":7618128,"byteStride":12},{"buffer":0,"byteLength":15984,"byteOffset":7634112,"byteStride":12},{"buffer":0,"byteLength":5328,"byteOffset":7650096},{"buffer":0,"byteLength":34560,"byteOffset":7655424,"byteStride":12},{"buffer":0,"byteLength":34560,"byteOffset":7689984,"byteStride":12},{"buffer":0,"byteLength":11520,"byteOffset":7724544},{"buffer":0,"byteLength":4464,"byteOffset":7736064,"byteStride":12},{"buffer":0,"byteLength":4464,"byteOffset":7740528,"byteStride":12},{"buffer":0,"byteLength":1488,"byteOffset":7744992},{"buffer":0,"byteLength":10224,"byteOffset":7746480,"byteStride":12},{"buffer":0,"byteLength":10224,"byteOffset":7756704,"byteStride":12},{"buffer":0,"byteLength":3408,"byteOffset":7766928},{"buffer":0,"byteLength":15984,"byteOffset":7770336,"byteStride":12},{"buffer":0,"byteLength":15984,"byteOffset":7786320,"byteStride":12},{"buffer":0,"byteLength":5328,"byteOffset":7802304},{"buffer":0,"byteLength":13680,"byteOffset":7807632,"byteStride":12},{"buffer":0,"byteLength":13680,"byteOffset":7821312,"byteStride":12},{"buffer":0,"byteLength":4560,"byteOffset":7834992},{"buffer":0,"byteLength":13968,"byteOffset":7839552,"byteStride":12},{"buffer":0,"byteLength":13968,"byteOffset":7853520,"byteStride":12},{"buffer":0,"byteLength":4656,"byteOffset":7867488},{"buffer":0,"byteLength":10944,"byteOffset":7872144,"byteStride":12},{"buffer":0,"byteLength":10944,"byteOffset":7883088,"byteStride":12},{"buffer":0,"byteLength":3648,"byteOffset":7894032},{"buffer":0,"byteLength":8136,"byteOffset":7897680,"byteStride":12},{"buffer":0,"byteLength":8136,"byteOffset":7905816,"byteStride":12},{"buffer":0,"byteLength":2712,"byteOffset":7913952}],"buffers":[{"byteLength":7916664,"uri":"./base_resources/base.bin"}],"cameras":[{"name":"active","perspective":{"aspectRatio":1.0,"yfov":0.6911154697478635,"zfar":46.47744369506836,"znear":31.11899757385254},"type":"perspective"}],"materials":[{"doubleSided":true,"pbrMetallicRoughness":{"baseColorFactor":[1.0,0.624110996723175,0.17717939615249634,1.0],"metallicFactor":0.10045531392097473,"roughnessFactor":0.0}},{"doubleSided":true,"pbrMetallicRoughness":{"baseColorFactor":[1.0,0.5297741293907166,0.30063143372535706,1.0],"metallicFactor":0.07953040301799774,"roughnessFactor":0.0}},{"doubleSided":true,"pbrMetallicRoughness":{"baseColorFactor":[0.800000011920929,0.037662800401449203,0.0,1.0],"metallicFactor":0.0,"roughnessFactor":1.0}},{"doubleSided":true,"pbrMetallicRoughness":{"baseColorFactor":[1.0,0.13033662736415863,0.09097668528556824,1.0],"metallicFactor":0.17304545640945435,"roughnessFactor":0.0}},{"doubleSided":true,"pbrMetallicRoughness":{"baseColorFactor":[0.23955099284648895,0.06964650005102158,0.011966600082814693,1.0],"metallicFactor":0.0,"roughnessFactor":1.0}},{"doubleSided":true,"pbrMetallicRoughness":{"baseColorFactor":[1.0,0.7045756578445435,0.3328433334827423,1.0],"metallicFactor":0.0,"roughnessFactor":0.0}}],"meshes":[{"name":"a??a-?.002-mesh","primitives":[{"attributes":{"NORMAL":1,"POSITION":0},"indices":2,"material":0,"mode":4}]},{"name":"a??a-?.001-mesh","primitives":[{"attributes":{"NORMAL":4,"POSITION":3},"indices":5,"material":1,"mode":4}]},{"name":"c??a?1e??.009-mesh","primitives":[{"attributes":{"NORMAL":7,"POSITION":6},"indices":8,"material":2,"mode":4}]},{"name":"c??a?1e??.007-mesh","primitives":[{"attributes":{"NORMAL":10,"POSITION":9},"indices":11,"material":2,"mode":4}]},{"name":"c??a?1e??.006-mesh","primitives":[{"attributes":{"NORMAL":13,"POSITION":12},"indices":14,"material":2,"mode":4}]},{"name":"c??a?1e??.005-mesh","primitives":[{"attributes":{"NORMAL":16,"POSITION":15},"indices":17,"material":2,"mode":4}]},{"name":"c??a?1e??.010-mesh","primitives":[{"attributes":{"NORMAL":19,"POSITION":18},"indices":20,"material":0,"mode":4}]},{"name":"a??a?¡Óe??.003-mesh","primitives":[{"attributes":{"NORMAL":22,"POSITION":21},"indices":23,"material":3,"mode":4}]},{"name":"c??e??-mesh","primitives":[{"attributes":{"NORMAL":25,"POSITION":24},"indices":26,"material":3,"mode":4}]},{"name":"a??a?¡Óe??.002-mesh","primitives":[{"attributes":{"NORMAL":28,"POSITION":27},"indices":29,"material":4,"mode":4}]},{"name":"c??a?1e??.004-mesh","primitives":[{"attributes":{"NORMAL":31,"POSITION":30},"indices":32,"material":5,"mode":4}]},{"name":"a??a?¡Óe??.001-mesh","primitives":[{"attributes":{"NORMAL":34,"POSITION":33},"indices":35,"material":1,"mode":4}]},{"name":"a??a?¡Óe??-mesh","primitives":[{"attributes":{"NORMAL":37,"POSITION":36},"indices":38,"material":1,"mode":4}]},{"name":"c??a?1e??.002-mesh","primitives":[{"attributes":{"NORMAL":40,"POSITION":39},"indices":41,"material":1,"mode":4}]},{"name":"c??a?1e??.001-mesh","primitives":[{"attributes":{"NORMAL":43,"POSITION":42},"indices":44,"material":5,"mode":4}]},{"name":"c??a?1e??-mesh","primitives":[{"attributes":{"NORMAL":46,"POSITION":45},"indices":47,"material":0,"mode":4}]}],"nodes":[{"camera":0,"matrix":[0.8811947869161836,-1.7828086651405783e-07,0.4727529510181778,0.0,0.11945914527585082,0.9675473189774412,-0.2226672585430794,0.0,-0.457410991191864,0.2526879906654358,0.8525980114936829,0.0,-17.902599334716797,14.353599548339844,34.272300720214844,1.0],"name":"active"},{"mesh":0,"name":"a??a-?.002"},{"children":[1],"matrix":[1.0,0.0,0.0,0.0,0.0,-4.3711398944878965e-08,1.0,0.0,0.0,-1.0,-4.3711398944878965e-08,0.0,-0.6272140145301819,-5.349289894104004,1.0092400312423706,1.0],"name":"a??a-?.001"},{"mesh":1,"name":"a??a-?.001"},{"children":[3],"matrix":[0.29604199528694153,0.0,0.0,0.0,0.0,0.2658059895038605,0.13033899664878845,0.0,0.0,-0.13033899664878845,0.2658059895038605,0.0,3.781820058822632,-4.36106014251709,3.1071701049804688,1.0],"name":"a??a-?"},{"mesh":2,"name":"c??a?1e??.009"},{"children":[5],"matrix":[0.9338529706001282,0.0,0.0,0.0,0.0,0.8439000248908997,0.39989298582077026,0.0,0.0,-0.39989298582077026,0.8439000248908997,0.0,6.340000152587891,0.18565300107002258,2.8823699951171875,1.0],"name":"c??a?1e??.008"},{"mesh":3,"name":"c??a?1e??.007"},{"children":[7],"matrix":[0.9338529706001282,0.0,0.0,0.0,0.0,0.8439000248908997,0.39989298582077026,0.0,0.0,-0.39989298582077026,0.8439000248908997,0.0,8.098150253295898,0.18565300107002258,2.8823699951171875,1.0],"name":"c??a?1e??.007"},{"mesh":4,"name":"c??a?1e??.006"},{"children":[9],"matrix":[0.9338529706001282,0.0,0.0,0.0,0.0,0.8439000248908997,0.39989298582077026,0.0,0.0,-0.39989298582077026,0.8439000248908997,0.0,7.246930122375488,-0.5610679984092712,2.528599977493286,1.0],"name":"c??a?1e??.006"},{"mesh":5,"name":"c??a?1e??.005"},{"children":[11],"matrix":[0.9338529706001282,0.0,0.0,0.0,0.0,0.8439000248908997,0.39989298582077026,0.0,0.0,-0.39989298582077026,0.8439000248908997,0.0,7.246930122375488,0.9166179895401001,3.2405600547790527,1.0],"name":"c??a?1e??.005"},{"mesh":6,"name":"c??a?1e??.010"},{"children":[13],"matrix":[-4.3711398944878965e-08,0.0,1.0,0.0,-1.0,-4.3711398944878965e-08,-4.3711398944878965e-08,0.0,4.3711398944878965e-08,-1.0,1.910689912087678e-15,0.0,-3.7441298961639404,-4.241980075836182,0.24076500535011292,1.0],"name":"c??a?1e??.003"},{"mesh":7,"name":"a??a?¡Óe??.003"},{"children":[15],"matrix":[1.2311700582504272,0.0,0.0,0.0,0.0,1.1122299432754517,0.5279449820518494,0.0,0.0,-0.5279449820518494,1.1122299432754517,0.0,0.7865750193595886,-4.660049915313721,3.1940701007843018,1.0],"name":"a??a?¡Óe??.003"},{"mesh":8,"name":"c??e??"},{"children":[17],"matrix":[0.20208999514579773,0.0038445699028670788,0.0886256992816925,0.0,-0.044179800897836685,0.19556699693202972,0.09225799888372421,0.0,-0.0769248977303505,-0.10221900045871735,0.17984400689601898,0.0,2.192579984664917,-4.971879959106445,3.7799201011657715,1.0],"name":"c??e??"},{"mesh":9,"name":"a??a?¡Óe??.002"},{"children":[19],"matrix":[0.8072069883346558,0.01535630039870739,0.35399600863456726,0.0,-0.16475500166416168,0.7959910035133362,0.3411549925804138,0.0,-0.3136959969997406,-0.3785429894924164,0.7317320108413696,0.0,2.3678200244903564,-4.752729892730713,3.3671700954437256,1.0],"name":"a??a?¡Óe??.002"},{"mesh":10,"name":"c??a?1e??.004"},{"children":[21],"name":"c??a?1e??.004"},{"mesh":11,"name":"a??a?¡Óe??.001"},{"children":[23],"matrix":[0.9679650068283081,0.0,0.0,0.0,0.0,0.8744519948959351,0.4150789976119995,0.0,0.0,-0.4150789976119995,0.8744519948959351,0.0,0.7797020077705383,-4.587709903717041,3.029289960861206,1.0],"name":"a??a?¡Óe??.001"},{"mesh":12,"name":"a??a?¡Óe??"},{"children":[25],"matrix":[1.1574100255966187,0.0,0.0,0.0,0.0,1.0456000566482544,0.4963169991970062,0.0,0.0,-0.4963169991970062,1.0456000566482544,0.0,2.4748799800872803,-4.587709903717041,3.029289960861206,1.0],"name":"a??a?¡Óe??"},{"mesh":13,"name":"c??a?1e??.002"},{"children":[27],"matrix":[1.0,0.0,0.0,0.0,0.0,0.9033920168876648,0.4288159906864166,0.0,0.0,-0.4288159906864166,0.9033920168876648,0.0,-0.5547490119934082,-4.589779853820801,3.0380399227142334,1.0],"name":"c??a?1e??.002"},{"mesh":14,"name":"c??a?1e??.001"},{"children":[29],"name":"c??a?1e??.001"},{"mesh":15,"name":"c??a?1e??"},{"children":[31],"matrix":[1.0,0.0,0.0,0.0,0.0,1.0,0.0,0.0,0.0,0.0,1.0,0.0,-0.27878499031066895,-0.06368540227413177,1.3899799585342407,1.0],"name":"c??a?1e??"},{"children":[2,4,6,8,10,12,14,16,18,20,22,24,26,28,30,32],"matrix":[1.0,0.0,0.0,0.0,0.0,1.22465002895872e-16,-1.0,0.0,0.0,1.0,1.22465002895872e-16,0.0,0.0,0.0,0.0,1.0],"name":"claw%20crane"},{"children":[33],"name":"Default"},{"children":[34],"name":"lux_root"}],"scenes":[{"nodes":[0,35]}]}