{"accessors":[{"bufferView":0,"componentType":5126,"count":36,"max":[-0.4000413119792938,3.2452359199523926,0.8394325375556946],"min":[-0.47094860672950745,-3.1654610633850098,-0.8394325375556946],"type":"VEC3"},{"bufferView":1,"componentType":5126,"count":36,"type":"VEC3"},{"bufferView":2,"componentType":5125,"count":36,"type":"SCALAR"},{"bufferView":3,"componentType":5126,"count":180,"max":[10.53339958190918,3.2782928943634033,1.3761370182037354],"min":[-0.09095858782529831,-3.278291940689087,-4.030663013458252],"type":"VEC3"},{"bufferView":4,"componentType":5126,"count":180,"type":"VEC3"},{"bufferView":5,"componentType":5125,"count":180,"type":"SCALAR"}],"asset":{"generator":"Luxion KeyShot","version":"2.0"},"bufferViews":[{"buffer":0,"byteLength":432,"byteOffset":0,"byteStride":12},{"buffer":0,"byteLength":432,"byteOffset":432,"byteStride":12},{"buffer":0,"byteLength":144,"byteOffset":864},{"buffer":0,"byteLength":2160,"byteOffset":1008,"byteStride":12},{"buffer":0,"byteLength":2160,"byteOffset":3168,"byteStride":12},{"buffer":0,"byteLength":720,"byteOffset":5328}],"buffers":[{"byteLength":6048,"uri":"./glass_resources/glass.bin"}],"cameras":[{"name":"active","perspective":{"aspectRatio":1.0,"yfov":0.6911154697478635,"zfar":34.14059066772461,"znear":18.215904235839844},"type":"perspective"}],"extensionsUsed":["KHR_materials_transmission"],"materials":[{"alphaMode":"MASK","doubleSided":true,"extensions":{"KHR_materials_transmission":{"transmissionFactor":0.9409000277519226}},"name":"立方體.003","pbrMetallicRoughness":{"baseColorFactor":[0.9409000277519226,0.9409000277519226,0.9409000277519226,1.0],"metallicFactor":0.0,"roughnessFactor":0.0}}],"meshes":[{"name":"立方體.003-mesh","primitives":[{"attributes":{"NORMAL":1,"POSITION":0},"indices":2,"material":0,"mode":4}]},{"name":"立方體.008-mesh","primitives":[{"attributes":{"NORMAL":4,"POSITION":3},"indices":5,"material":0,"mode":4}]}],"nodes":[{"camera":0,"matrix":[0.8571672938730428,-1.962392586207784e-07,0.5150380628977795,0.0,0.15915569373902877,0.9510564965560981,-0.2648791972860933,0.0,-0.48983025550842285,0.30901703238487244,0.8152145743370056,0.0,-13.819252967834473,11.884060859680176,22.33918571472168,1.0],"name":"active"},{"matrix":[1.0,0.0,0.0,0.0,0.0,0.9999999999999999,0.0,0.0,0.0,0.0,0.9999999999999999,0.0,0.0,-5.412337245047638e-16,-4.482772778969562,1.0],"mesh":0,"name":"立方體.003"},{"children":[1],"matrix":[1.0,0.0,0.0,0.0,0.0,1.0,0.0,0.0,0.0,0.0,1.0,0.0,-1.535539984703064,-0.09674140065908432,5.32220983505249,1.0],"name":"glassInner"},{"matrix":[1.0,0.0,0.0,0.0,0.0,1.0,0.0,0.0,0.0,0.0,1.0,0.0,0.0,-3.918965380683703e-07,4.482772778969529,1.0],"mesh":1,"name":"立方體.008"},{"children":[3],"matrix":[1.0,0.0,0.0,0.0,0.0,-1.0,8.742279788975793e-08,0.0,0.0,-8.742279788975793e-08,-1.0,0.0,-5.528649806976318,-0.06368540227413177,5.858910083770752,1.0],"name":"glassOuter"},{"children":[2,4],"matrix":[1.0,0.0,0.0,0.0,0.0,1.2246467991473532e-16,-0.9999999999999999,0.0,0.0,0.9999999999999999,1.2246467991473532e-16,0.0,0.0,0.0,0.0,1.0],"name":"glass"},{"children":[5],"name":"Default"},{"children":[6],"name":"lux_root"}],"scenes":[{"nodes":[0,7]}]}  