{"accessors":[{"bufferView":0,"componentType":5126,"count":1980,"max":[5.895288944244385,5.531941890716553,0.1799519956111908],"min":[-0.655032217502594,-1.3171290159225464,-0.4462108016014099],"type":"VEC3"},{"bufferView":1,"componentType":5126,"count":1980,"type":"VEC3"},{"bufferView":2,"componentType":5125,"count":1980,"type":"SCALAR"},{"bufferView":3,"componentType":5126,"count":60,"max":[0.025294478982686996,3.3913090229034424,12.985169410705566],"min":[-0.7649883031845093,-3.2977240085601807,12.44003963470459],"type":"VEC3"},{"bufferView":4,"componentType":5126,"count":60,"type":"VEC3"},{"bufferView":5,"componentType":5125,"count":60,"type":"SCALAR"},{"bufferView":6,"componentType":5126,"count":1980,"max":[5.895288944244385,5.531941890716553,0.1799519956111908],"min":[-0.655032217502594,-1.3171290159225464,-0.4462108016014099],"type":"VEC3"},{"bufferView":7,"componentType":5126,"count":1980,"type":"VEC3"},{"bufferView":8,"componentType":5125,"count":1980,"type":"SCALAR"},{"bufferView":9,"componentType":5126,"count":1668,"max":[5.532352924346924,3.5998589992523193,12.44003963470459],"min":[-6.291625022888184,-3.677053928375244,9.88957405090332],"type":"VEC3"},{"bufferView":10,"componentType":5126,"count":1668,"type":"VEC3"},{"bufferView":11,"componentType":5125,"count":1668,"type":"SCALAR"}],"asset":{"generator":"Luxion KeyShot","version":"2.0"},"bufferViews":[{"buffer":0,"byteLength":23760,"byteOffset":0,"byteStride":12},{"buffer":0,"byteLength":23760,"byteOffset":23760,"byteStride":12},{"buffer":0,"byteLength":7920,"byteOffset":47520},{"buffer":0,"byteLength":720,"byteOffset":55440,"byteStride":12},{"buffer":0,"byteLength":720,"byteOffset":56160,"byteStride":12},{"buffer":0,"byteLength":240,"byteOffset":56880},{"buffer":0,"byteLength":23760,"byteOffset":57120,"byteStride":12},{"buffer":0,"byteLength":23760,"byteOffset":80880,"byteStride":12},{"buffer":0,"byteLength":7920,"byteOffset":104640},{"buffer":0,"byteLength":20016,"byteOffset":112560,"byteStride":12},{"buffer":0,"byteLength":20016,"byteOffset":132576,"byteStride":12},{"buffer":0,"byteLength":6672,"byteOffset":152592}],"buffers":[{"byteLength":159264,"uri":"./roof_resources/roof.bin"}],"cameras":[{"name":"active","perspective":{"aspectRatio":1.0,"yfov":0.6911154697478635,"zfar":47.365882873535156,"znear":31.0601806640625},"type":"perspective"}],"materials":[{"doubleSided":true,"name":"Paint Gloss Green #2","pbrMetallicRoughness":{"baseColorFactor":[0.17921149730682373,0.8044567704200745,0.0010010004043579102,1.0],"metallicFactor":0.0,"roughnessFactor":0.0}},{"doubleSided":true,"name":"Paint Gloss Black #1","pbrMetallicRoughness":{"baseColorFactor":[0.0011126603931188583,0.0011126603931188583,0.0011126603931188583,1.0],"metallicFactor":0.0,"roughnessFactor":0.0}},{"doubleSided":true,"name":"Paint Gloss Blue #1","pbrMetallicRoughness":{"baseColorFactor":[0.0010082125663757324,0.244550883769989,0.8044569492340088,1.0],"metallicFactor":0.0,"roughnessFactor":0.0}}],"meshes":[{"name":"立方體.014-mesh","primitives":[{"attributes":{"NORMAL":1,"POSITION":0},"indices":2,"material":0,"mode":4}]},{"name":"立方體.013-mesh","primitives":[{"attributes":{"NORMAL":4,"POSITION":3},"indices":5,"material":1,"mode":4}]},{"name":"立方體.009-mesh","primitives":[{"attributes":{"NORMAL":7,"POSITION":6},"indices":8,"material":0,"mode":4}]},{"name":"立方體.005-mesh","primitives":[{"attributes":{"NORMAL":10,"POSITION":9},"indices":11,"material":2,"mode":4}]}],"nodes":[{"camera":0,"matrix":[0.8931752231202434,-1.8683571001432142e-07,0.44970879028503274,0.0,0.1163933602072567,0.9659258202393881,-0.23117067588895407,0.0,-0.4343852996826172,0.258819043636322,0.8627410531044006,0.0,-17.281965255737305,20.047060012817383,33.800838470458984,1.0],"name":"active"},{"mesh":0,"name":"立方體.014"},{"children":[1],"matrix":[-4.343380055615853e-08,-0.9936500191688538,0.002591650001704693,0.0,0.7271119952201843,-0.0005866889841854572,-0.22492699325084686,0.0,0.3266200125217438,0.002753840060904622,1.055840015411377,0.0,0.9145979881286621,2.5899600982666016,12.259400367736816,1.0],"name":"立方體.008"},{"mesh":1,"name":"立方體.013"},{"children":[3],"name":"立方體.006"},{"mesh":2,"name":"立方體.009"},{"children":[5],"matrix":[0.010674900375306606,0.9935929775238037,0.002591650001704693,0.0,-0.7270640134811401,0.008398089557886124,-0.22492699325084686,0.0,-0.32662999629974365,0.0007552169845439494,1.055840015411377,0.0,-1.6830799579620361,-2.60263991355896,12.259400367736816,1.0],"name":"立方體.007"},{"mesh":3,"name":"立方體.005"},{"children":[7],"name":"立方體.005"},{"children":[2,4,6,8],"matrix":[1.0,0.0,0.0,0.0,0.0,1.224646799147353e-16,-0.9999999999999998,0.0,0.0,0.9999999999999998,1.224646799147353e-16,0.0,0.0,-9.889574050903317,1.9721522630525295e-31,1.0],"name":"roof"},{"children":[9],"name":"Default"},{"children":[10],"name":"lux_root"}],"scenes":[{"nodes":[0,11]}]}  