{"accessors":[{"bufferView":0,"componentType":5126,"count":1980,"max":[5.895288944244385,5.531941890716553,0.1799519956111908],"min":[-0.655032217502594,-1.3171290159225464,-0.4462108016014099],"type":"VEC3"},{"bufferView":1,"componentType":5126,"count":1980,"type":"VEC3"},{"bufferView":2,"componentType":5125,"count":1980,"type":"SCALAR"},{"bufferView":3,"componentType":5126,"count":60,"max":[0.025294478982686996,3.3913090229034424,12.985169410705566],"min":[-0.7649883031845093,-3.2977240085601807,12.44003963470459],"type":"VEC3"},{"bufferView":4,"componentType":5126,"count":60,"type":"VEC3"},{"bufferView":5,"componentType":5125,"count":60,"type":"SCALAR"},{"bufferView":6,"componentType":5126,"count":1980,"max":[5.895288944244385,5.531941890716553,0.1799519956111908],"min":[-0.655032217502594,-1.3171290159225464,-0.4462108016014099],"type":"VEC3"},{"bufferView":7,"componentType":5126,"count":1980,"type":"VEC3"},{"bufferView":8,"componentType":5125,"count":1980,"type":"SCALAR"},{"bufferView":9,"componentType":5126,"count":30,"max":[4.7645158767700195,3.1041970252990723,12.44003963470459],"min":[-5.523787975311279,-3.181391954421997,10.595230102539063],"type":"VEC3"},{"bufferView":10,"componentType":5126,"count":30,"type":"VEC3"},{"bufferView":11,"componentType":5125,"count":30,"type":"SCALAR"},{"bufferView":12,"componentType":5126,"count":1638,"max":[5.532352924346924,3.5998589992523193,10.595230102539063],"min":[-6.291625022888184,-3.677053928375244,9.88957405090332],"type":"VEC3"},{"bufferView":13,"componentType":5126,"count":1638,"type":"VEC3"},{"bufferView":14,"componentType":5125,"count":1638,"type":"SCALAR"}],"asset":{"generator":"Luxion KeyShot","version":"2.0"},"bufferViews":[{"buffer":0,"byteLength":23760,"byteOffset":0,"byteStride":12},{"buffer":0,"byteLength":23760,"byteOffset":23760,"byteStride":12},{"buffer":0,"byteLength":7920,"byteOffset":47520},{"buffer":0,"byteLength":720,"byteOffset":55440,"byteStride":12},{"buffer":0,"byteLength":720,"byteOffset":56160,"byteStride":12},{"buffer":0,"byteLength":240,"byteOffset":56880},{"buffer":0,"byteLength":23760,"byteOffset":57120,"byteStride":12},{"buffer":0,"byteLength":23760,"byteOffset":80880,"byteStride":12},{"buffer":0,"byteLength":7920,"byteOffset":104640},{"buffer":0,"byteLength":360,"byteOffset":112560,"byteStride":12},{"buffer":0,"byteLength":360,"byteOffset":112920,"byteStride":12},{"buffer":0,"byteLength":120,"byteOffset":113280},{"buffer":0,"byteLength":19656,"byteOffset":113400,"byteStride":12},{"buffer":0,"byteLength":19656,"byteOffset":133056,"byteStride":12},{"buffer":0,"byteLength":6552,"byteOffset":152712}],"buffers":[{"byteLength":159264,"uri":"./roof_resources/roof.bin"}],"cameras":[{"name":"active","perspective":{"aspectRatio":1.0,"yfov":0.6911154697478635,"zfar":55.03830337524414,"znear":38.03547286987305},"type":"perspective"}],"materials":[{"doubleSided":true,"pbrMetallicRoughness":{"baseColorFactor":[1.0,0.3509339690208435,0.07137471437454224,1.0],"metallicFactor":0.14820368587970734,"roughnessFactor":0.0}},{"doubleSided":true,"pbrMetallicRoughness":{"baseColorFactor":[1.0,0.22405005991458893,0.07288700342178345,1.0],"metallicFactor":0.18601137399673462,"roughnessFactor":0.0}},{"doubleSided":true,"pbrMetallicRoughness":{"baseColorFactor":[1.0,0.6241050362586975,0.17718398571014404,1.0],"metallicFactor":0.10045591741800308,"roughnessFactor":0.0}}],"meshes":[{"name":"c??a?1e??.014-mesh","primitives":[{"attributes":{"NORMAL":1,"POSITION":0},"indices":2,"material":0,"mode":4}]},{"name":"c??a?1e??.013-mesh","primitives":[{"attributes":{"NORMAL":4,"POSITION":3},"indices":5,"material":1,"mode":4}]},{"name":"c??a?1e??.009-mesh","primitives":[{"attributes":{"NORMAL":7,"POSITION":6},"indices":8,"material":0,"mode":4}]},{"name":"c??a?1e??.005_1-mesh","primitives":[{"attributes":{"NORMAL":10,"POSITION":9},"indices":11,"material":2,"mode":4}]},{"name":"c??a?1e??.005-mesh","primitives":[{"attributes":{"NORMAL":13,"POSITION":12},"indices":14,"material":2,"mode":4}]}],"nodes":[{"camera":0,"matrix":[0.815162452432104,-1.8135635393434768e-07,0.5792324519560539,0.0,0.14203501424644183,0.9694694769405267,-0.19988768642695634,0.0,-0.561548113822937,0.24521221220493317,0.7902750968933105,0.0,-26.13003158569336,17.430932998657227,36.92562484741211,1.0],"name":"active"},{"mesh":0,"name":"c??a?1e??.014"},{"children":[1],"matrix":[-4.343380055615853e-08,-0.9936500191688538,0.002591650001704693,0.0,0.7271119952201843,-0.0005866889841854572,-0.22492699325084686,0.0,0.3266200125217438,0.002753840060904622,1.055840015411377,0.0,0.9145979881286621,2.5899600982666016,12.259400367736816,1.0],"name":"c??a?1e??.008"},{"mesh":1,"name":"c??a?1e??.013"},{"children":[3],"name":"c??a?1e??.006"},{"mesh":2,"name":"c??a?1e??.009"},{"children":[5],"matrix":[0.010674900375306606,0.9935929775238037,0.002591650001704693,0.0,-0.7270640134811401,0.008398089557886124,-0.22492699325084686,0.0,-0.32662999629974365,0.0007552169845439494,1.055840015411377,0.0,-1.6830799579620361,-2.60263991355896,12.259400367736816,1.0],"name":"c??a?1e??.007"},{"mesh":3,"name":"c??a?1e??.005_1"},{"mesh":4,"name":"c??a?1e??.005"},{"children":[2,4,6,7,8],"matrix":[1.0000000000000002,0.0,0.0,0.0,0.0,1.1102230246251565e-16,-1.0000000000000002,0.0,0.0,1.0000000000000002,1.1102230246251565e-16,0.0,0.3796360492706298,-9.889574050903322,-0.9422153234481809,1.0],"name":"roof"},{"children":[9],"name":"New Model Set"},{"children":[10],"name":"lux_root"}],"scenes":[{"nodes":[0,11]}]} 